<svg enable-background="new 0 0 256 77" viewBox="0 0 256 77" xmlns="http://www.w3.org/2000/svg"><path d="m30.9 59.4c.4-2.1-1.2-3.6-4.8-4.7l-3.3-.8c-5.5-1.4-9.5-3.5-12-6.1s-3.7-5.7-3.6-9.3c.2-4.9 2.3-8.9 6.5-11.9 4.2-3.1 9.3-4.6 15.3-4.6 6 .1 10.9 1.6 14.6 4.6s5.6 7 5.7 12.1h-15.5c.1-4-1.6-6-5.3-6-1.6 0-3 .5-4.4 1.4s-2.2 2.2-2.4 3.7c-.5 2.5 1.7 4.3 6.7 5.2 4.4 1 7.7 2.2 10.1 3.6s4.2 3.1 5.5 5.1 1.8 4.4 1.7 7.3c-.1 3.1-1.1 5.8-3 8.2s-4.7 4.4-8.3 5.8-7.6 2.1-11.8 2c-3.7 0-7.1-.8-10.3-2.3s-5.6-3.6-7.4-6.2-2.7-5.6-2.8-8.9l14.4.1c.1 4.5 2.3 6.8 6.8 6.7 1.9 0 3.6-.4 4.9-1.3 1.5-.9 2.4-2.2 2.7-3.7z" fill="#fff"/><path d="m23.4 76.5c-.3 0-.5 0-.8 0-3.9 0-7.5-.9-10.9-2.5s-6.1-3.9-8-6.7-3-6.1-3-9.8v-1.6l17.5.1v1.5c0 1.8.5 3.2 1.3 4s2.2 1.1 3.9 1.2c1.6 0 3-.4 4.1-1.1 1-.6 1.6-1.5 1.9-2.7.2-1.1-1-2.1-3.7-2.9l-3.3-.8c-5.7-1.5-10-3.7-12.7-6.5-2.8-2.9-4.2-6.4-4-10.4.2-5.4 2.6-9.8 7.2-13.1 4.5-3.2 10-4.9 16.3-4.8s11.6 1.7 15.5 4.9c4.1 3.3 6.2 7.7 6.3 13.3v1.6l-18.6-.1.1-1.6c.1-1.7-.3-2.8-.9-3.5-1.1-1.2-4.1-1.3-6.4.2-1 .7-1.6 1.6-1.8 2.7-.1.5-.1.9.2 1.2.4.5 1.5 1.6 5.3 2.3 4.6 1.1 8.1 2.3 10.6 3.8 2.6 1.5 4.6 3.4 6 5.6 1.4 2.3 2.1 5 2 8.1-.1 3.4-1.2 6.5-3.3 9.2-2.1 2.6-5.1 4.7-9 6.3-3.7 1.4-7.6 2.1-11.8 2.1zm-19.5-17.4c.3 2.4 1.1 4.6 2.4 6.5 1.6 2.4 3.9 4.2 6.8 5.6s6.2 2.1 9.6 2.2c4.1.1 7.8-.6 11.2-1.9s5.9-3.1 7.7-5.3c1.7-2.2 2.6-4.6 2.7-7.3.1-2.5-.4-4.7-1.5-6.4-1.1-1.8-2.8-3.3-4.9-4.5-2.2-1.3-5.5-2.4-9.7-3.4-3.7-.7-6.1-1.9-7.3-3.6-.7-1-.9-2.2-.6-3.5.3-1.9 1.3-3.5 3-4.7 1.6-1.1 3.4-1.7 5.3-1.7 2.2 0 3.9.6 5.1 1.8 1 1 1.6 2.4 1.7 4.2h12.3c-.4-3.9-2-6.9-5-9.3-3.4-2.7-8-4.2-13.6-4.2-5.7-.1-10.5 1.4-14.4 4.2-3.8 2.8-5.7 6.3-5.9 10.7-.1 3.2.9 5.8 3.1 8.2 2.3 2.4 6.1 4.3 11.3 5.7l3.3.8c5.7 1.6 6.4 4.4 5.9 6.5-.4 2-1.5 3.5-3.2 4.6-1.6 1.1-3.7 1.5-5.9 1.5-2.5 0-4.5-.7-5.9-2.1-1.1-1.1-1.8-2.7-2.1-4.6z" fill="#231f20"/><path d="m79.1 74c-.4-1.2-.7-2.8-.7-4.6-3.5 3.8-7.7 5.7-12.5 5.6-4.4-.1-8.1-1.5-11-4.4s-4.3-6.4-4.1-10.5c.2-5.5 2.5-9.8 6.9-12.8 4.5-3 10.6-4.5 18.3-4.5l5.2.1.6-2.9.2-2.5c-.1-2.9-1.6-4.3-4.3-4.4-3.4-.1-5.5 1.8-6.3 5.6h-15.6c.2-3.4 1.3-6.4 3.3-8.9s4.9-4.5 8.5-5.8c3.6-1.4 7.4-2 11.4-1.9 3.9.1 7.2.9 10.2 2.4 2.9 1.5 5.1 3.6 6.5 6.4 1.4 2.7 2 5.9 1.7 9.4l-3.8 24-.2 2.9c-.1 2.3.2 4.3.9 5.9v.9zm-8.9-10.3c3.2.1 6-1.3 8.3-4.2l1.6-8.2h-4c-2.5.1-4.6.8-6.4 2.2s-2.8 3.3-3.2 5.7c-.2 1.3.1 2.3.7 3.2s1.7 1.2 3 1.3z" fill="#fff"/><path d="m66.4 76.5c-.2 0-.3 0-.5 0-4.8-.1-8.9-1.7-12.1-4.9s-4.8-7.1-4.6-11.7c.2-6 2.7-10.7 7.6-14 4.7-3.1 11.1-4.7 19.1-4.7l3.9.1.3-1.6.2-2.3c-.1-1.9-.9-2.7-2.8-2.8-1.8 0-3.9.4-4.7 4.4l-.3 1.2-18.4.1.1-1.6c.2-3.7 1.4-7.1 3.7-9.8 2.2-2.7 5.3-4.9 9.1-6.3 3.7-1.4 7.8-2.1 12-2 4.1.1 7.7 1 10.8 2.6 3.2 1.7 5.6 4 7.2 7s2.2 6.4 1.8 10.3l-3.8 24.1-.2 2.8c-.1 2 .1 3.8.8 5.2l.1.3-.1 2.7h-17.6l-.4-1c-.2-.6-.4-1.2-.5-1.8-3.1 2.4-6.7 3.7-10.7 3.7zm9.6-32.2c-7.4 0-13.2 1.4-17.4 4.2-4.1 2.7-6.1 6.5-6.2 11.5-.2 3.7 1 6.8 3.6 9.4s5.9 3.9 10 4c4.4.1 8.1-1.5 11.3-5.1l2.7-3v4c0 1.2.1 2.2.3 3.1h12.1c-.5-1.6-.7-3.4-.6-5.4l.2-3 3.9-24c.3-3.1-.2-6-1.5-8.4s-3.3-4.4-5.9-5.7c-2.7-1.4-5.9-2.2-9.5-2.3-3.8-.1-7.4.5-10.8 1.8-3.3 1.3-5.9 3.1-7.8 5.4-1.5 1.9-2.5 4-2.8 6.4h12.6c1.4-4.7 4.9-5.7 7.5-5.6 3.6.1 5.6 2.2 5.8 5.9l-.2 2.7-.8 4.3zm-5.4 21c-.2 0-.3 0-.5 0-2.2-.1-3.5-1.1-4.1-1.9-.9-1.2-1.3-2.6-1-4.3.4-2.8 1.6-5.1 3.7-6.8 2.1-1.6 4.5-2.4 7.3-2.5l5.9.1-2 10.4-.2.3c-2.5 3.1-5.6 4.7-9.1 4.7zm-.3-3.1c2.6.1 4.8-1 6.8-3.3l1.1-6h-2.2c-2.1.1-3.9.7-5.4 1.9-1.5 1.1-2.3 2.7-2.6 4.7-.1.9 0 1.5.4 2 .3.1.7.6 1.9.7z" fill="#231f20"/><path d="m128.7 10.3-2.2 12.7h8.2l-1.9 11h-8.2l-4 23.4c-.2 1.6-.1 2.8.3 3.6s1.5 1.3 3.2 1.3c.7 0 2 0 4.1-.2l-1.2 11.6c-2.6.8-5.4 1.2-8.3 1.2-4.8-.1-8.4-1.5-10.8-4.2-2.4-2.8-3.4-6.5-2.9-11.3l4.1-25.3h-6.3l1.9-11h6.3l2.2-12.7h15.5z" fill="#fff"/><path d="m119.3 76.4c-.2 0-.4 0-.6 0-5.2-.1-9.3-1.7-11.9-4.8-2.7-3.1-3.8-7.3-3.3-12.4l3.9-23.6h-6.4l2.4-14.1h6.3l2.2-12.7h18.7l-2.2 12.7h8.2l-2.6 14.1h-8.1l-3.7 22.1c-.2 1.6 0 2.4.2 2.7.1.1.6.4 1.9.5.4 0 1.4 0 3.9-.2l1.9-.2-1.4 14.4-1 .3c-2.8.8-5.5 1.2-8.4 1.2zm-14.7-43.9h6.3l-4.4 27.1c-.4 4.2.5 7.6 2.6 10s5.3 3.7 9.6 3.7c2.4 0 4.7-.2 6.9-.8l.8-8.6c-1.1.1-1.9.1-2.4.1-2.3-.1-3.8-.8-4.5-2.2-.6-1.1-.7-2.6-.5-4.6l4.2-24.8h8.2l1.4-7.9h-8.2l2.2-12.7h-12.4l-2.2 12.7h-6.2z" fill="#231f20"/><path d="m148.8 74h-15.6l8.9-51h15.6zm-5.4-63.9c-.1-2.3.7-4.2 2.4-5.7s3.7-2.3 6.1-2.3 4.4.7 6.1 2.1c1.6 1.4 2.5 3.2 2.5 5.4.1 2.3-.7 4.3-2.4 5.8s-3.7 2.3-6.1 2.3-4.4-.7-6-2c-1.6-1.5-2.5-3.3-2.6-5.6z" fill="#fff"/><path d="m150.1 75.5h-18.7l9.4-54.1h18.7zm-15-3.1h12.4l8.3-47.9h-12.4zm16.9-53.2c-2.7 0-5.1-.8-7-2.4-2-1.7-3.1-3.9-3.1-6.6-.1-2.8.9-5.1 2.9-6.9s4.4-2.7 7.1-2.7c2.8 0 5.2.8 7.1 2.4 2 1.7 3 3.9 3.1 6.6.1 2.8-.9 5.1-2.9 7-2 1.7-4.4 2.6-7.2 2.6zm0-15.6c-2 0-3.7.6-5.1 1.9-1.3 1.2-2 2.7-1.9 4.6 0 1.8.7 3.2 2 4.3 1.4 1.1 3 1.7 5 1.7s3.7-.6 5.1-1.9c1.3-1.2 2-2.7 1.9-4.6-.1-1.8-.7-3.2-2-4.3s-3-1.7-5-1.7z" fill="#231f20"/><path d="m180.5 54.9 12.8-31.9h16.7l-24.1 51h-15.8l-8.2-51h15.9z" fill="#fff"/><path d="m186.9 75.5h-18.1l-8.6-54.1h19.2l2.2 26.8 10.7-26.8h20.2zm-15.5-3.1h13.5l22.7-47.9h-13.2l-14.8 37-3.1-37h-12.7z" fill="#231f20"/><path d="m229.4 74.9c-4.6 0-8.6-1.1-12.2-3.2s-6.3-5.1-8.1-8.9-2.5-8-2.2-12.5l.1-1.3c.8-8.4 3.8-15 8.7-19.9 5-4.9 11.1-7.2 18.3-7 4.4.1 8.1 1.2 11.2 3.3 3.1 2.2 5.4 5.1 6.8 8.9s1.9 8 1.4 12.8l-.9 6.5h-30.4c.1 2.7.8 4.8 2.3 6.5 1.4 1.7 3.6 2.5 6.3 2.6 4.5.1 8.5-1.6 12.1-5.2l6.5 8.6c-1.9 2.7-4.6 4.9-8 6.4-3.4 1.6-7.2 2.4-11.3 2.4zm3.7-40.6c-2.2-.1-4.1.6-5.7 2.1-1.6 1.4-3 3.8-4.2 7.2h15.5l.3-1.4c.2-1.1.2-2.1.1-3.1-.6-3.1-2.6-4.7-6-4.8z" fill="#fff"/><path d="m229.4 76.5c-4.8 0-9.2-1.2-13-3.4-3.8-2.3-6.7-5.5-8.7-9.5-1.9-4-2.7-8.5-2.3-13.3l.1-1.4c.9-8.7 4-15.7 9.2-20.9 5.3-5.2 11.8-7.7 19.4-7.5 4.6.1 8.7 1.3 12.1 3.6s5.8 5.6 7.4 9.6c1.5 4 2 8.5 1.5 13.5l-1.1 7.9h-30c.2 1.6.8 2.9 1.7 3.9 1.2 1.3 2.9 2 5.2 2.1 4.1.2 7.7-1.4 11-4.7l1.3-1.3 8.3 10.9-.6.9c-2.1 2.9-5 5.3-8.7 6.9-3.6 1.6-7.6 2.5-11.9 2.6h-.9zm0-3.1h.8c3.8-.1 7.4-.8 10.7-2.3 2.8-1.3 5-2.9 6.7-5l-4.8-6.3c-3.6 3.1-7.6 4.5-12 4.4-3.2-.1-5.7-1.2-7.4-3.2-1.7-1.9-2.6-4.5-2.6-7.5v-1.6h30.6l.7-5.1c.5-4.4 0-8.5-1.3-12s-3.4-6.2-6.3-8.2c-2.8-2-6.3-3-10.4-3.1-6.9-.2-12.5 2-17.2 6.6s-7.5 11-8.3 19l-.1 1.3c-.3 4.2.3 8.2 2 11.7s4.2 6.2 7.5 8.2 7.1 3 11.4 3.1zm10.5-28.3h-19l.7-2.1c1.3-3.7 2.8-6.2 4.6-7.9 1.9-1.7 4.2-2.5 6.8-2.5 5.3.1 7 3.4 7.4 6.1.2 1.2.1 2.4-.1 3.6zm-14.4-3.1 12-.1c.1-.9.2-1.8.1-2.6-.4-2.3-1.8-3.4-4.4-3.5-1.9-.1-3.3.5-4.7 1.7-1.2 1-2.2 2.5-3 4.5z" fill="#231f20"/></svg>